# xmcd
#
# Track frame offsets:
#	182
#	8052
#	17782
#	27305
#	39032
#	48895
#	59330
#	71280
#	84027
#	95362
#	108320
#	118762
#	133445
#	143352
#	154150
#	166382
#	177475
#	188822
#	197075
#	207507
#
# Disc length: 2899 seconds
#
# Revision: 2
# Processed by: cddbd v1.4PL0 Copyright (c) Steve Scherf et al.
# Submitted via: MusicWizard 6.0.1
#
DISCID=060b5114
DTITLE=Various Artist - Big Country
DYEAR=1994
DGENRE=Country
TTITLE0=Roger Miller - Do Wacka Do
TTITLE1=Jeannie C Riley - He Made A Woman Out Of Me
TTITLE2=Tex Ritter - Careless Love
TTITLE3=Jerry Wallace - There She Goes
TTITLE4=Carl Perkins - Everybody's Trying To Be My Baby
TTITLE5=Johnny Cash - (I Heard That) Lonesome Whistle
TTITLE6=Webb Price - High Geared Daddy
TTITLE7=Lester Flatt and Earl Scruggs - Bouquet In Heaven
TTITLE8=Carl Belew - Little Miss Heartache
TTITLE9=Faron Young - I'm A Free Man Now
TTITLE10=Jerry Lee Lewis - Will The Circle Be Unbroken
TTITLE11=George Jones - Cold, Cold Heart
TTITLE12=Johnny Cash - Get Rhythm
TTITLE13=Hank Loklin - Crazy Over You
TTITLE14=Johnny Horton - Done Roving
TTITLE15=Glen Campbell - Man With The Golden Gun
TTITLE16=Patsy Cline - In Care Of The Blues
TTITLE17=Roger Miller - Dear Heart
TTITLE18=Dave Duddley - Seven Lonely Days
TTITLE19=Johnny Cash - There You Go
EXTD=
EXTT0=
EXTT1=
EXTT2=
EXTT3=
EXTT4=
EXTT5=
EXTT6=
EXTT7=
EXTT8=
EXTT9=
EXTT10=
EXTT11=
EXTT12=
EXTT13=
EXTT14=
EXTT15=
EXTT16=
EXTT17=
EXTT18=
EXTT19=
PLAYORDER=
